<svg xmlns="http://www.w3.org/2000/svg" xmlns:v="https://svgstorm.com"
viewBox = "0 0 500 334"
width="500"
height="334">
<g fill="None" fill-opacity="0.0" stroke="#FEFEFE" stroke-opacity="1.00" stroke-width="0.3"><path d="
M 0.00 51.00 
C 2.64 51.16 4.62 54.02 6.00 56.00
C 6.40 56.20 7.00 56.00 7.00 56.00
C 14.44 61.15 22.57 65.77 29.00 72.00
C 37.65 77.39 45.45 83.64 54.00 89.00
C 56.92 91.45 61.25 92.23 63.00 96.00
C 64.46 96.55 65.18 98.40 67.00 98.00
C 76.83 105.62 88.04 111.57 97.00 120.00
C 100.11 119.66 100.88 124.38 104.00 124.00
C 105.97 125.72 108.95 126.37 110.00 129.00
C 111.88 129.68 113.32 131.02 115.00 132.00
C 124.85 138.48 134.68 143.67 143.00 152.00
C 143.48 152.09 144.00 152.00 144.00 152.00
C 146.29 154.11 149.22 155.64 151.00 158.00
C 151.44 158.16 152.00 158.00 152.00 158.00
C 155.25 159.88 158.86 161.87 161.00 165.00
C 161.80 165.13 162.11 166.09 163.00 166.00
C 165.92 167.54 168.99 169.49 171.00 172.00
C 171.44 172.16 172.00 172.00 172.00 172.00
C 179.86 177.53 188.26 182.32 195.00 189.00
C 195.44 189.16 196.00 189.00 196.00 189.00
C 197.55 190.55 200.17 190.83 201.00 193.00
C 202.93 193.66 203.67 196.39 206.00 196.00
C 207.55 197.55 210.17 197.83 211.00 200.00
C 213.51 202.06 216.02 203.80 219.00 205.00
C 222.76 206.53 226.24 210.05 229.00 213.00
C 229.36 213.22 230.00 213.00 230.00 213.00
C 232.90 215.48 237.05 216.55 239.00 220.00
C 239.36 220.22 240.00 220.00 240.00 220.00
C 246.36 224.62 253.66 228.31 259.00 234.00
C 260.93 234.66 261.67 237.39 264.00 237.00
C 267.25 238.88 270.86 240.87 273.00 244.00
C 273.36 244.22 274.00 244.00 274.00 244.00
C 280.24 247.39 288.06 251.03 292.00 257.00
C 292.44 257.16 293.00 257.00 293.00 257.00
C 295.35 258.02 297.85 259.58 299.00 262.00
C 299.44 262.16 300.00 262.00 300.00 262.00
C 301.57 262.96 303.25 264.32 304.00 266.00
C 305.82 265.45 306.47 267.75 308.00 268.00
C 309.85 268.97 312.24 269.79 313.00 272.00
C 313.44 272.16 314.00 272.00 314.00 272.00
C 316.23 274.19 319.55 275.14 321.00 278.00
C 321.36 278.22 322.00 278.00 322.00 278.00
C 326.04 280.90 331.17 282.69 334.00 287.00
C 334.80 287.13 335.11 288.09 336.00 288.00
C 338.22 287.95 339.99 290.29 341.00 292.00
C 344.32 292.26 345.69 296.44 349.00 297.00
C 352.25 298.88 355.86 300.87 358.00 304.00
C 358.36 304.22 359.00 304.00 359.00 304.00
C 363.04 306.93 367.79 309.29 371.00 313.00
C 373.31 312.55 374.07 315.53 376.00 316.00
C 377.55 317.55 380.17 317.83 381.00 320.00
C 381.44 320.16 382.00 320.00 382.00 320.00
C 383.85 320.97 386.24 321.79 387.00 324.00
C 387.36 324.22 388.00 324.00 388.00 324.00
C 389.57 324.96 391.25 326.32 392.00 328.00
C 394.93 328.28 396.77 331.69 399.00 333.00
C 432.67 333.00 466.33 333.00 500.00 333.00
L 500.00 282.00
C 492.58 279.35 486.06 274.79 481.00 268.00
C 480.60 267.80 480.00 268.00 480.00 268.00
C 475.74 264.56 470.09 262.75 467.00 258.00
C 461.89 257.02 459.11 250.97 454.00 250.00
C 450.28 248.03 446.26 245.78 444.00 242.00
C 442.54 241.45 441.82 239.60 440.00 240.00
C 431.09 234.05 422.12 227.66 414.00 221.00
C 411.69 221.45 410.93 218.47 409.00 218.00
C 404.63 214.74 399.34 212.35 396.00 208.00
C 394.72 208.53 394.14 207.03 393.00 207.00
C 391.10 205.13 388.30 204.27 387.00 202.00
C 386.56 201.84 386.00 202.00 386.00 202.00
C 379.64 197.84 372.33 193.64 367.00 188.00
C 366.56 187.84 366.00 188.00 366.00 188.00
C 362.63 185.40 358.43 183.54 356.00 180.00
C 355.56 179.84 355.00 180.00 355.00 180.00
C 350.79 177.34 346.21 174.72 343.00 171.00
C 342.20 170.87 341.89 169.91 341.00 170.00
C 338.78 170.05 337.01 167.71 336.00 166.00
C 334.54 165.45 333.82 163.60 332.00 164.00
C 327.74 160.56 322.09 158.75 319.00 154.00
C 318.64 153.78 318.00 154.00 318.00 154.00
C 313.38 152.29 308.89 149.20 306.00 145.00
C 303.29 143.33 301.20 140.49 298.00 140.00
C 296.45 138.45 293.83 138.17 293.00 136.00
C 290.22 133.51 286.99 132.09 284.00 130.00
C 281.65 128.98 279.15 127.42 278.00 125.00
C 277.68 124.76 277.00 125.00 277.00 125.00
C 265.19 116.94 252.96 108.94 242.00 100.00
C 241.56 99.84 241.00 100.00 241.00 100.00
C 236.73 96.57 231.40 94.27 228.00 90.00
C 224.77 88.28 222.39 85.38 219.00 84.00
C 214.97 82.00 210.68 79.67 208.00 76.00
C 207.56 75.84 207.00 76.00 207.00 76.00
C 201.77 71.82 195.16 69.31 191.00 64.00
C 190.56 63.84 190.00 64.00 190.00 64.00
C 188.45 62.45 185.83 62.17 185.00 60.00
C 184.20 59.87 183.89 58.91 183.00 59.00
C 180.65 57.98 178.15 56.42 177.00 54.00
C 176.64 53.78 176.00 54.00 176.00 54.00
C 173.58 53.32 172.08 51.19 170.00 50.00
C 167.78 50.05 166.01 47.71 165.00 46.00
C 162.95 44.65 161.04 43.30 159.00 42.00
C 153.61 38.15 147.16 35.31 143.00 30.00
C 142.64 29.78 142.00 30.00 142.00 30.00
C 140.45 28.45 137.83 28.17 137.00 26.00
C 136.56 25.84 136.00 26.00 136.00 26.00
C 133.57 24.17 130.37 22.95 129.00 20.00
C 128.64 19.78 128.00 20.00 128.00 20.00
C 122.78 15.83 116.04 13.51 112.00 8.00
C 111.64 7.78 111.00 8.00 111.00 8.00
C 109.45 6.45 106.83 6.17 106.00 4.00
C 104.45 2.45 101.83 2.17 101.00 0.00
L 0.00 0.00
L 0.00 51.00
M 255.00 138.00 
C 260.05 140.84 258.52 147.55 261.00 152.00
C 271.33 152.00 281.67 152.00 292.00 152.00
C 288.05 165.01 264.29 164.39 270.00 181.00
C 269.38 182.94 271.20 184.13 271.00 186.00
C 271.12 186.47 271.00 187.00 271.00 187.00
C 273.50 190.20 274.80 194.75 275.00 199.00
C 275.01 199.50 275.00 200.00 275.00 200.00
C 277.80 201.84 272.97 202.61 273.00 200.00
C 268.69 197.78 265.19 194.39 261.00 192.00
C 259.03 190.28 256.05 189.63 255.00 187.00
C 252.83 185.70 250.53 182.94 248.00 185.00
C 247.59 185.83 247.03 186.87 246.00 187.00
C 240.92 193.00 234.09 197.69 227.00 201.00
C 226.06 201.57 225.18 202.15 224.00 202.00
C 224.69 196.80 226.34 191.26 229.00 187.00
C 229.02 186.50 229.00 186.00 229.00 186.00
C 228.72 180.71 235.42 174.52 230.75 170.25 C 226.13 167.57 221.37 164.23 218.00 160.00
C 217.68 159.76 217.00 160.00 217.00 160.00
C 214.15 157.24 208.67 156.42 208.00 152.00
C 218.60 150.28 232.86 155.62 241.00 149.00
C 245.91 141.46 244.37 129.50 251.00 124.00
C 251.83 128.83 254.17 133.14 255.00 138.00 Z"/>
</g>
<g fill="None" fill-opacity="0.0" stroke="#EA2A39" stroke-opacity="1.00" stroke-width="0.3"><path d="
M 106.00 4.00 
C 107.85 4.97 110.24 5.79 111.00 8.00
C 111.00 8.00 111.64 7.78 112.00 8.00
C 117.20 12.23 123.64 15.00 128.00 20.00
C 128.00 20.00 128.64 19.78 129.00 20.00
C 131.43 21.83 134.63 23.05 136.00 26.00
C 136.00 26.00 136.56 25.84 137.00 26.00
C 138.85 26.97 141.24 27.79 142.00 30.00
C 142.00 30.00 142.64 29.78 143.00 30.00
C 148.33 34.01 154.42 37.33 159.00 42.00
C 161.04 43.30 162.95 44.65 165.00 46.00
C 166.67 47.11 168.13 48.30 170.00 49.00
C 171.97 50.72 174.95 51.37 176.00 54.00
C 176.00 54.00 176.64 53.78 177.00 54.00
C 178.97 55.72 181.95 56.37 183.00 59.00
C 183.89 58.91 184.20 59.87 185.00 60.00
C 186.85 60.97 189.24 61.79 190.00 64.00
C 190.00 64.00 190.56 63.84 191.00 64.00
C 196.52 67.66 202.62 71.05 207.00 76.00
C 207.00 76.00 207.56 75.84 208.00 76.00
C 211.85 78.34 215.99 80.82 219.00 84.00
C 222.39 85.38 224.77 88.28 228.00 90.00
C 232.26 93.44 237.91 95.25 241.00 100.00
C 241.00 100.00 241.56 99.84 242.00 100.00
C 253.95 107.84 266.14 115.93 277.00 125.00
C 277.00 125.00 277.68 124.76 278.00 125.00
C 279.90 126.87 282.70 127.73 284.00 130.00
C 286.99 132.09 290.22 133.51 293.00 136.00
C 295.22 135.95 296.99 138.29 298.00 140.00
C 301.20 140.49 303.29 143.33 306.00 145.00
C 309.72 148.48 314.80 150.24 318.00 154.00
C 318.00 154.00 318.64 153.78 319.00 154.00
C 323.27 157.43 328.60 159.73 332.00 164.00
C 333.82 163.60 334.54 165.45 336.00 166.00
C 337.55 167.55 340.18 167.83 341.00 170.00
C 341.89 169.91 342.20 170.87 343.00 171.00
C 347.14 173.73 351.92 176.10 355.00 180.00
C 355.00 180.00 355.56 179.84 356.00 180.00
C 359.63 182.13 363.63 184.38 366.00 188.00
C 366.00 188.00 366.56 187.84 367.00 188.00
C 373.44 192.44 380.71 196.23 386.00 202.00
C 386.00 202.00 386.56 201.84 387.00 202.00
C 389.35 203.02 391.85 204.58 393.00 207.00
C 394.14 207.03 394.72 208.53 396.00 208.00
C 400.27 211.43 405.60 213.73 409.00 218.00
C 410.93 218.47 411.69 221.45 414.00 221.00
C 423.11 226.58 432.15 232.91 440.00 240.00
C 441.82 239.60 442.54 241.45 444.00 242.00
C 447.37 244.60 451.57 246.46 454.00 250.00
C 459.11 250.97 461.89 257.02 467.00 258.00
C 471.02 261.85 476.73 263.51 480.00 268.00
C 480.00 268.00 480.60 267.80 481.00 268.00
C 487.20 272.63 493.51 276.77 500.00 281.00
L 500.00 0.00
L 101.00 0.00
C 101.83 2.17 104.45 2.45 106.00 4.00 Z"/>
</g>
<g fill="None" fill-opacity="0.0" stroke="#EE828E" stroke-opacity="1.00" stroke-width="0.3"><path d="
M 111.00 8.00 
C 110.24 5.79 107.85 4.97 106.00 4.00
C 106.83 6.17 109.45 6.45 111.00 8.00 Z"/>
</g>
<g fill="None" fill-opacity="0.0" stroke="#F59599" stroke-opacity="1.00" stroke-width="0.3"><path d="
M 128.00 20.00 
C 123.64 15.00 117.20 12.23 112.00 8.00
C 116.04 13.51 122.78 15.83 128.00 20.00 Z"/>
</g>
<g fill="None" fill-opacity="0.0" stroke="#F6A2AB" stroke-opacity="1.00" stroke-width="0.3"><path d="
M 136.00 26.00 
C 134.63 23.05 131.43 21.83 129.00 20.00
C 130.37 22.95 133.57 24.17 136.00 26.00 Z"/>
</g>
<g fill="None" fill-opacity="0.0" stroke="#F9A8AA" stroke-opacity="1.00" stroke-width="0.3"><path d="
M 142.00 30.00 
C 141.24 27.79 138.85 26.97 137.00 26.00
C 137.83 28.17 140.45 28.45 142.00 30.00 Z"/>
</g>
<g fill="None" fill-opacity="0.0" stroke="#FBB3BD" stroke-opacity="1.00" stroke-width="0.3"><path d="
M 159.00 42.00 
C 154.42 37.33 148.33 34.01 143.00 30.00
C 147.16 35.31 153.61 38.15 159.00 42.00 Z"/>
</g>
<g fill="None" fill-opacity="0.0" stroke="#FFDCE4" stroke-opacity="1.00" stroke-width="0.3"><path d="
M 170.00 50.00 
C 169.75 49.73 170.00 49.00 170.00 49.00
C 168.13 48.30 166.67 47.11 165.00 46.00
C 166.01 47.71 167.78 50.05 170.00 50.00 Z"/>
</g>
<g fill="None" fill-opacity="0.0" stroke="#F7A7B1" stroke-opacity="1.00" stroke-width="0.3"><path d="
M 170.00 50.00 
C 172.08 51.19 173.58 53.32 176.00 54.00
C 174.95 51.37 171.97 50.72 170.00 49.00
C 170.00 49.00 169.75 49.73 170.00 50.00 Z"/>
</g>
<g fill="None" fill-opacity="0.0" stroke="#FEBFC1" stroke-opacity="1.00" stroke-width="0.3"><path d="
M 0.00 52.00 
C 2.75 51.73 3.68 55.29 6.00 56.00
C 4.62 54.02 2.64 51.16 0.00 51.00
L 0.00 52.00 Z"/>
</g>
<g fill="None" fill-opacity="0.0" stroke="#EA2A39" stroke-opacity="1.00" stroke-width="0.3"><path d="
M 0.00 333.00 
C 133.00 333.00 266.00 333.00 399.00 333.00
C 396.77 331.69 394.93 328.28 392.00 328.00
C 390.43 327.04 388.75 325.68 388.00 324.00
C 388.00 324.00 387.36 324.22 387.00 324.00
C 385.45 322.45 382.83 322.17 382.00 320.00
C 382.00 320.00 381.44 320.16 381.00 320.00
C 379.15 319.03 376.76 318.21 376.00 316.00
C 374.07 315.53 373.31 312.55 371.00 313.00
C 366.86 310.27 362.08 307.90 359.00 304.00
C 359.00 304.00 358.36 304.22 358.00 304.00
C 355.10 301.52 350.95 300.45 349.00 297.00
C 345.69 296.44 344.32 292.26 341.00 292.00
C 339.45 290.45 336.83 290.17 336.00 288.00
C 335.11 288.09 334.80 287.13 334.00 287.00
C 330.39 283.36 324.79 282.40 322.00 278.00
C 322.00 278.00 321.36 278.22 321.00 278.00
C 318.57 276.17 315.37 274.95 314.00 272.00
C 314.00 272.00 313.44 272.16 313.00 272.00
C 311.15 271.03 308.76 270.21 308.00 268.00
C 306.47 267.75 305.82 265.45 304.00 266.00
C 302.43 265.04 300.75 263.68 300.00 262.00
C 300.00 262.00 299.44 262.16 299.00 262.00
C 296.65 260.98 294.15 259.42 293.00 257.00
C 293.00 257.00 292.44 257.16 292.00 257.00
C 285.80 253.03 279.37 248.80 274.00 244.00
C 274.00 244.00 273.36 244.22 273.00 244.00
C 270.10 241.52 265.95 240.45 264.00 237.00
C 261.67 237.39 260.93 234.66 259.00 234.00
C 252.69 229.31 245.19 225.93 240.00 220.00
C 240.00 220.00 239.36 220.22 239.00 220.00
C 236.10 217.52 231.95 216.45 230.00 213.00
C 230.00 213.00 229.36 213.22 229.00 213.00
C 225.63 210.40 221.43 208.54 219.00 205.00
C 216.02 203.80 213.51 202.06 211.00 200.00
C 208.78 200.05 207.01 197.71 206.00 196.00
C 203.67 196.39 202.93 193.66 201.00 193.00
C 199.15 192.03 196.76 191.21 196.00 189.00
C 196.00 189.00 195.44 189.16 195.00 189.00
C 187.10 183.76 178.84 178.42 172.00 172.00
C 172.00 172.00 171.44 172.16 171.00 172.00
C 168.08 170.46 165.01 168.51 163.00 166.00
C 162.11 166.09 161.80 165.13 161.00 165.00
C 157.95 162.74 154.30 160.91 152.00 158.00
C 152.00 158.00 151.44 158.16 151.00 158.00
C 148.18 156.86 145.54 154.65 144.00 152.00
C 144.00 152.00 143.48 152.09 143.00 152.00
C 133.86 145.47 123.23 139.83 115.00 132.00
C 113.32 131.02 111.88 129.68 110.00 129.00
C 108.03 127.28 105.05 126.63 104.00 124.00
C 100.88 124.38 100.11 119.66 97.00 120.00
C 86.98 112.70 75.70 106.86 67.00 98.00
C 65.18 98.40 64.46 96.55 63.00 96.00
C 60.10 93.52 55.95 92.45 54.00 89.00
C 45.45 83.64 37.65 77.39 29.00 72.00
C 21.64 66.74 13.37 62.33 7.00 56.00
C 7.00 56.00 6.40 56.20 6.00 56.00
C 3.68 55.29 2.75 51.73 0.00 52.00
L 0.00 333.00 Z"/>
</g>
<g fill="None" fill-opacity="0.0" stroke="#F8B2AD" stroke-opacity="1.00" stroke-width="0.3"><path d="
M 183.00 59.00 
C 181.95 56.37 178.97 55.72 177.00 54.00
C 178.15 56.42 180.65 57.98 183.00 59.00 Z"/>
</g>
<g fill="None" fill-opacity="0.0" stroke="#F69EA7" stroke-opacity="1.00" stroke-width="0.3"><path d="
M 29.00 72.00 
C 22.57 65.77 14.44 61.15 7.00 56.00
C 13.37 62.33 21.64 66.74 29.00 72.00 Z"/>
</g>
<g fill="None" fill-opacity="0.0" stroke="#FBB4B6" stroke-opacity="1.00" stroke-width="0.3"><path d="
M 190.00 64.00 
C 189.24 61.79 186.85 60.97 185.00 60.00
C 185.83 62.17 188.45 62.45 190.00 64.00 Z"/>
</g>
<g fill="None" fill-opacity="0.0" stroke="#FBB7B7" stroke-opacity="1.00" stroke-width="0.3"><path d="
M 207.00 76.00 
C 202.62 71.05 196.52 67.66 191.00 64.00
C 195.16 69.31 201.77 71.82 207.00 76.00 Z"/>
</g>
<g fill="None" fill-opacity="0.0" stroke="#FAB1BC" stroke-opacity="1.00" stroke-width="0.3"><path d="
M 219.00 84.00 
C 215.99 80.82 211.85 78.34 208.00 76.00
C 210.68 79.67 214.97 82.00 219.00 84.00 Z"/>
</g>
<g fill="None" fill-opacity="0.0" stroke="#FAB0B5" stroke-opacity="1.00" stroke-width="0.3"><path d="
M 63.00 96.00 
C 61.25 92.23 56.92 91.45 54.00 89.00
C 55.95 92.45 60.10 93.52 63.00 96.00 Z"/>
</g>
<g fill="None" fill-opacity="0.0" stroke="#F6AAB1" stroke-opacity="1.00" stroke-width="0.3"><path d="
M 241.00 100.00 
C 237.91 95.25 232.26 93.44 228.00 90.00
C 231.40 94.27 236.73 96.57 241.00 100.00 Z"/>
</g>
<g fill="None" fill-opacity="0.0" stroke="#F59EA9" stroke-opacity="1.00" stroke-width="0.3"><path d="
M 97.00 120.00 
C 88.04 111.57 76.83 105.62 67.00 98.00
C 75.70 106.86 86.98 112.70 97.00 120.00 Z"/>
</g>
<g fill="None" fill-opacity="0.0" stroke="#F7A7A8" stroke-opacity="1.00" stroke-width="0.3"><path d="
M 277.00 125.00 
C 266.14 115.93 253.95 107.84 242.00 100.00
C 252.96 108.94 265.19 116.94 277.00 125.00 Z"/>
</g>
<g fill="None" fill-opacity="0.0" stroke="#FEC0BC" stroke-opacity="1.00" stroke-width="0.3"><path d="
M 110.00 129.00 
C 108.95 126.37 105.97 125.72 104.00 124.00
C 105.05 126.63 108.03 127.28 110.00 129.00 Z"/>
</g>
<g fill="None" fill-opacity="0.0" stroke="#0C72CA" stroke-opacity="1.00" stroke-width="0.3"><path d="
M 241.00 149.00 
C 241.37 150.54 239.57 151.40 240.00 153.00
C 229.83 153.67 218.34 151.67 209.00 154.00
C 211.81 155.70 215.35 156.95 217.00 160.00
C 217.00 160.00 217.68 159.76 218.00 160.00
C 223.42 163.56 228.29 168.29 234.00 171.00
C 233.07 176.12 231.78 181.83 229.00 186.00
C 229.00 186.00 229.02 186.50 229.00 187.00
C 229.84 190.88 222.63 200.26 227.00 200.00
C 232.74 196.98 237.37 191.84 243.00 189.00
C 243.93 186.83 246.05 185.89 248.00 185.00
C 250.53 182.94 252.83 185.70 255.00 187.00
C 257.35 188.02 259.85 189.58 261.00 192.00
C 265.19 194.39 268.69 197.78 273.00 200.00
C 273.67 200.28 274.78 201.48 275.00 200.00
C 275.00 200.00 275.01 199.50 275.00 199.00
C 273.28 195.48 271.89 191.11 271.00 187.00
C 271.00 187.00 271.12 186.47 271.00 186.00
C 269.57 184.95 268.77 182.90 269.00 181.00
C 260.71 167.19 283.23 162.10 291.00 154.00
C 281.58 151.69 270.18 153.65 260.00 153.00
C 258.80 147.86 256.45 143.08 255.00 138.00
C 254.17 133.14 251.83 128.83 251.00 124.00
C 244.37 129.50 245.91 141.46 241.00 149.00 Z"/>
</g>
<g fill="None" fill-opacity="0.0" stroke="#F7ACB5" stroke-opacity="1.00" stroke-width="0.3"><path d="
M 284.00 130.00 
C 282.70 127.73 279.90 126.87 278.00 125.00
C 279.15 127.42 281.65 128.98 284.00 130.00 Z"/>
</g>
<g fill="None" fill-opacity="0.0" stroke="#FDBDC4" stroke-opacity="1.00" stroke-width="0.3"><path d="
M 143.00 152.00 
C 134.68 143.67 124.85 138.48 115.00 132.00
C 123.23 139.83 133.86 145.47 143.00 152.00 Z"/>
</g>
<g fill="None" fill-opacity="0.0" stroke="#F69DB0" stroke-opacity="1.00" stroke-width="0.3"><path d="
M 298.00 140.00 
C 296.99 138.29 295.22 135.95 293.00 136.00
C 293.83 138.17 296.45 138.45 298.00 140.00 Z"/>
</g>
<g fill="None" fill-opacity="0.0" stroke="#C1EAFB" stroke-opacity="1.00" stroke-width="0.3"><path d="
M 269.00 181.00 
C 269.13 181.22 270.00 181.00 270.00 181.00
C 264.29 164.39 288.05 165.01 292.00 152.00
C 281.67 152.00 271.33 152.00 261.00 152.00
C 258.52 147.55 260.05 140.84 255.00 138.00
C 256.45 143.08 258.80 147.86 260.00 153.00
C 270.18 153.65 281.58 151.69 291.00 154.00
C 283.23 162.10 260.71 167.19 269.00 181.00 Z"/>
</g>
<g fill="None" fill-opacity="0.0" stroke="#FFCFD5" stroke-opacity="1.00" stroke-width="0.3"><path d="
M 318.00 154.00 
C 314.80 150.24 309.72 148.48 306.00 145.00
C 308.89 149.20 313.38 152.29 318.00 154.00 Z"/>
</g>
<g fill="None" fill-opacity="0.0" stroke="#B3E2FA" stroke-opacity="1.00" stroke-width="0.3"><path d="
M 217.00 160.00 
C 215.35 156.95 211.81 155.70 209.00 154.00
C 218.34 151.67 229.83 153.67 240.00 153.00
C 239.57 151.40 241.37 150.54 241.00 149.00
C 232.86 155.62 218.60 150.28 208.00 152.00
C 208.67 156.42 214.15 157.24 217.00 160.00 Z"/>
</g>
<g fill="None" fill-opacity="0.0" stroke="#F1A4AA" stroke-opacity="1.00" stroke-width="0.3"><path d="
M 151.00 158.00 
C 149.22 155.64 146.29 154.11 144.00 152.00
C 145.54 154.65 148.18 156.86 151.00 158.00 Z"/>
</g>
<g fill="None" fill-opacity="0.0" stroke="#FDBEBD" stroke-opacity="1.00" stroke-width="0.3"><path d="
M 332.00 164.00 
C 328.60 159.73 323.27 157.43 319.00 154.00
C 322.09 158.75 327.74 160.56 332.00 164.00 Z"/>
</g>
<g fill="None" fill-opacity="0.0" stroke="#FEBAC3" stroke-opacity="1.00" stroke-width="0.3"><path d="
M 161.00 165.00 
C 158.86 161.87 155.25 159.88 152.00 158.00
C 154.30 160.91 157.95 162.74 161.00 165.00 Z"/>
</g>
<g fill="None" fill-opacity="0.0" stroke="#94CAEF" stroke-opacity="1.00" stroke-width="0.3"><path d="
M 229.00 186.00 
C 231.78 181.83 233.07 176.12 234.00 171.00
C 228.29 168.29 223.42 163.56 218.00 160.00
C 221.37 164.23 226.13 167.57 230.75 170.25 C 235.42 174.52 228.72 180.71 229.00 186.00 Z"/>
</g>
<g fill="None" fill-opacity="0.0" stroke="#F5A8AA" stroke-opacity="1.00" stroke-width="0.3"><path d="
M 171.00 172.00 
C 168.99 169.49 165.92 167.54 163.00 166.00
C 165.01 168.51 168.08 170.46 171.00 172.00 Z"/>
</g>
<g fill="None" fill-opacity="0.0" stroke="#FBB1B4" stroke-opacity="1.00" stroke-width="0.3"><path d="
M 341.00 170.00 
C 340.18 167.83 337.55 167.55 336.00 166.00
C 337.01 167.71 338.78 170.05 341.00 170.00 Z"/>
</g>
<g fill="None" fill-opacity="0.0" stroke="#FA9FA8" stroke-opacity="1.00" stroke-width="0.3"><path d="
M 355.00 180.00 
C 351.92 176.10 347.14 173.73 343.00 171.00
C 346.21 174.72 350.79 177.34 355.00 180.00 Z"/>
</g>
<g fill="None" fill-opacity="0.0" stroke="#FCB0B5" stroke-opacity="1.00" stroke-width="0.3"><path d="
M 195.00 189.00 
C 188.26 182.32 179.86 177.53 172.00 172.00
C 178.84 178.42 187.10 183.76 195.00 189.00 Z"/>
</g>
<g fill="None" fill-opacity="0.0" stroke="#F59BA4" stroke-opacity="1.00" stroke-width="0.3"><path d="
M 366.00 188.00 
C 363.63 184.38 359.63 182.13 356.00 180.00
C 358.43 183.54 362.63 185.40 366.00 188.00 Z"/>
</g>
<g fill="None" fill-opacity="0.0" stroke="#7CB5E3" stroke-opacity="1.00" stroke-width="0.3"><path d="
M 271.00 186.00 
C 271.20 184.13 269.38 182.94 270.00 181.00
C 270.00 181.00 269.13 181.22 269.00 181.00
C 268.77 182.90 269.57 184.95 271.00 186.00 Z"/>
</g>
<g fill="None" fill-opacity="0.0" stroke="#77AEDF" stroke-opacity="1.00" stroke-width="0.3"><path d="
M 243.00 189.00 
C 244.25 188.70 244.71 187.17 246.00 187.00
C 247.03 186.87 247.59 185.83 248.00 185.00
C 246.05 185.89 243.93 186.83 243.00 189.00 Z"/>
</g>
<g fill="None" fill-opacity="0.0" stroke="#87BFE4" stroke-opacity="1.00" stroke-width="0.3"><path d="
M 227.00 201.00 
C 227.05 200.99 227.00 200.00 227.00 200.00
C 222.63 200.26 229.84 190.88 229.00 187.00
C 226.34 191.26 224.69 196.80 224.00 202.00
C 225.18 202.15 226.06 201.57 227.00 201.00 Z"/>
</g>
<g fill="None" fill-opacity="0.0" stroke="#C9ECFC" stroke-opacity="1.00" stroke-width="0.3"><path d="
M 243.00 189.00 
C 237.37 191.84 232.74 196.98 227.00 200.00
C 227.00 200.00 227.05 200.99 227.00 201.00
C 234.09 197.69 240.92 193.00 246.00 187.00
C 244.71 187.17 244.25 188.70 243.00 189.00 Z"/>
</g>
<g fill="None" fill-opacity="0.0" stroke="#7EBBED" stroke-opacity="1.00" stroke-width="0.3"><path d="
M 261.00 192.00 
C 259.85 189.58 257.35 188.02 255.00 187.00
C 256.05 189.63 259.03 190.28 261.00 192.00 Z"/>
</g>
<g fill="None" fill-opacity="0.0" stroke="#9DCBEB" stroke-opacity="1.00" stroke-width="0.3"><path d="
M 275.00 199.00 
C 274.80 194.75 273.50 190.20 271.00 187.00
C 271.89 191.11 273.28 195.48 275.00 199.00 Z"/>
</g>
<g fill="None" fill-opacity="0.0" stroke="#FDBAC4" stroke-opacity="1.00" stroke-width="0.3"><path d="
M 386.00 202.00 
C 380.71 196.23 373.44 192.44 367.00 188.00
C 372.33 193.64 379.64 197.84 386.00 202.00 Z"/>
</g>
<g fill="None" fill-opacity="0.0" stroke="#F7AEB5" stroke-opacity="1.00" stroke-width="0.3"><path d="
M 201.00 193.00 
C 200.17 190.83 197.55 190.55 196.00 189.00
C 196.76 191.21 199.15 192.03 201.00 193.00 Z"/>
</g>
<g fill="None" fill-opacity="0.0" stroke="#F49EB4" stroke-opacity="1.00" stroke-width="0.3"><path d="
M 211.00 200.00 
C 210.17 197.83 207.55 197.55 206.00 196.00
C 207.01 197.71 208.78 200.05 211.00 200.00 Z"/>
</g>
<g fill="None" fill-opacity="0.0" stroke="#7FADD7" stroke-opacity="1.00" stroke-width="0.3"><path d="
M 275.00 200.00 
C 274.78 201.48 273.67 200.28 273.00 200.00
C 272.97 202.61 277.80 201.84 275.00 200.00 Z"/>
</g>
<g fill="None" fill-opacity="0.0" stroke="#F8AFAE" stroke-opacity="1.00" stroke-width="0.3"><path d="
M 393.00 207.00 
C 391.85 204.58 389.35 203.02 387.00 202.00
C 388.30 204.27 391.10 205.13 393.00 207.00 Z"/>
</g>
<g fill="None" fill-opacity="0.0" stroke="#FFC3CA" stroke-opacity="1.00" stroke-width="0.3"><path d="
M 229.00 213.00 
C 226.24 210.05 222.76 206.53 219.00 205.00
C 221.43 208.54 225.63 210.40 229.00 213.00 Z"/>
</g>
<g fill="None" fill-opacity="0.0" stroke="#F3989C" stroke-opacity="1.00" stroke-width="0.3"><path d="
M 409.00 218.00 
C 405.60 213.73 400.27 211.43 396.00 208.00
C 399.34 212.35 404.63 214.74 409.00 218.00 Z"/>
</g>
<g fill="None" fill-opacity="0.0" stroke="#F8B1B2" stroke-opacity="1.00" stroke-width="0.3"><path d="
M 239.00 220.00 
C 237.05 216.55 232.90 215.48 230.00 213.00
C 231.95 216.45 236.10 217.52 239.00 220.00 Z"/>
</g>
<g fill="None" fill-opacity="0.0" stroke="#FAAEAC" stroke-opacity="1.00" stroke-width="0.3"><path d="
M 259.00 234.00 
C 253.66 228.31 246.36 224.62 240.00 220.00
C 245.19 225.93 252.69 229.31 259.00 234.00 Z"/>
</g>
<g fill="None" fill-opacity="0.0" stroke="#F59FA9" stroke-opacity="1.00" stroke-width="0.3"><path d="
M 440.00 240.00 
C 432.15 232.91 423.11 226.58 414.00 221.00
C 422.12 227.66 431.09 234.05 440.00 240.00 Z"/>
</g>
<g fill="None" fill-opacity="0.0" stroke="#F5A7AF" stroke-opacity="1.00" stroke-width="0.3"><path d="
M 273.00 244.00 
C 270.86 240.87 267.25 238.88 264.00 237.00
C 265.95 240.45 270.10 241.52 273.00 244.00 Z"/>
</g>
<g fill="None" fill-opacity="0.0" stroke="#FEC6CC" stroke-opacity="1.00" stroke-width="0.3"><path d="
M 454.00 250.00 
C 451.57 246.46 447.37 244.60 444.00 242.00
C 446.26 245.78 450.28 248.03 454.00 250.00 Z"/>
</g>
<g fill="None" fill-opacity="0.0" stroke="#FFD6DF" stroke-opacity="1.00" stroke-width="0.3"><path d="
M 292.00 257.00 
C 288.06 251.03 280.24 247.39 274.00 244.00
C 279.37 248.80 285.80 253.03 292.00 257.00 Z"/>
</g>
<g fill="None" fill-opacity="0.0" stroke="#FFCBCD" stroke-opacity="1.00" stroke-width="0.3"><path d="
M 299.00 262.00 
C 297.85 259.58 295.35 258.02 293.00 257.00
C 294.15 259.42 296.65 260.98 299.00 262.00 Z"/>
</g>
<g fill="None" fill-opacity="0.0" stroke="#F4A1A1" stroke-opacity="1.00" stroke-width="0.3"><path d="
M 480.00 268.00 
C 476.73 263.51 471.02 261.85 467.00 258.00
C 470.09 262.75 475.74 264.56 480.00 268.00 Z"/>
</g>
<g fill="None" fill-opacity="0.0" stroke="#FAB6B6" stroke-opacity="1.00" stroke-width="0.3"><path d="
M 304.00 266.00 
C 303.25 264.32 301.57 262.96 300.00 262.00
C 300.75 263.68 302.43 265.04 304.00 266.00 Z"/>
</g>
<g fill="None" fill-opacity="0.0" stroke="#F7AFB3" stroke-opacity="1.00" stroke-width="0.3"><path d="
M 313.00 272.00 
C 312.24 269.79 309.85 268.97 308.00 268.00
C 308.76 270.21 311.15 271.03 313.00 272.00 Z"/>
</g>
<g fill="None" fill-opacity="0.0" stroke="#FDCDD3" stroke-opacity="1.00" stroke-width="0.3"><path d="
M 500.00 282.00 
L 500.00 281.00
C 493.51 276.77 487.20 272.63 481.00 268.00
C 486.06 274.79 492.58 279.35 500.00 282.00 Z"/>
</g>
<g fill="None" fill-opacity="0.0" stroke="#F6A1A3" stroke-opacity="1.00" stroke-width="0.3"><path d="
M 321.00 278.00 
C 319.55 275.14 316.23 274.19 314.00 272.00
C 315.37 274.95 318.57 276.17 321.00 278.00 Z"/>
</g>
<g fill="None" fill-opacity="0.0" stroke="#F8A9AC" stroke-opacity="1.00" stroke-width="0.3"><path d="
M 334.00 287.00 
C 331.17 282.69 326.04 280.90 322.00 278.00
C 324.79 282.40 330.39 283.36 334.00 287.00 Z"/>
</g>
<g fill="None" fill-opacity="0.0" stroke="#F5A7AF" stroke-opacity="1.00" stroke-width="0.3"><path d="
M 341.00 292.00 
C 339.99 290.29 338.22 287.95 336.00 288.00
C 336.83 290.17 339.45 290.45 341.00 292.00 Z"/>
</g>
<g fill="None" fill-opacity="0.0" stroke="#F8A2AA" stroke-opacity="1.00" stroke-width="0.3"><path d="
M 358.00 304.00 
C 355.86 300.87 352.25 298.88 349.00 297.00
C 350.95 300.45 355.10 301.52 358.00 304.00 Z"/>
</g>
<g fill="None" fill-opacity="0.0" stroke="#F6A1AA" stroke-opacity="1.00" stroke-width="0.3"><path d="
M 371.00 313.00 
C 367.79 309.29 363.04 306.93 359.00 304.00
C 362.08 307.90 366.86 310.27 371.00 313.00 Z"/>
</g>
<g fill="None" fill-opacity="0.0" stroke="#F79BA1" stroke-opacity="1.00" stroke-width="0.3"><path d="
M 381.00 320.00 
C 380.17 317.83 377.55 317.55 376.00 316.00
C 376.76 318.21 379.15 319.03 381.00 320.00 Z"/>
</g>
<g fill="None" fill-opacity="0.0" stroke="#FFC4C2" stroke-opacity="1.00" stroke-width="0.3"><path d="
M 387.00 324.00 
C 386.24 321.79 383.85 320.97 382.00 320.00
C 382.83 322.17 385.45 322.45 387.00 324.00 Z"/>
</g>
<g fill="None" fill-opacity="0.0" stroke="#FDAFB1" stroke-opacity="1.00" stroke-width="0.3"><path d="
M 392.00 328.00 
C 391.25 326.32 389.57 324.96 388.00 324.00
C 388.75 325.68 390.43 327.04 392.00 328.00 Z"/>
</g>
<g fill="None" fill-opacity="0.0" stroke="#FE6A75" stroke-opacity="0.56" stroke-width="0.3"><path d="
M 0.00 334.00 
L 399.00 334.00
C 399.00 333.50 399.00 333.00 399.00 333.00
C 266.00 333.00 133.00 333.00 0.00 333.00
L 0.00 334.00 Z"/>
</g>
<g fill="None" fill-opacity="0.0" stroke="#E1C4CA" stroke-opacity="0.71" stroke-width="0.3"><path d="
M 399.00 334.00 
L 500.00 334.00
L 500.00 333.00
C 466.33 333.00 432.67 333.00 399.00 333.00
C 399.00 333.00 399.00 333.50 399.00 334.00 Z"/>
</g>
<g fill="#FEFEFE" fill-opacity="1.00" stroke="None"><path d="
M 0.00 51.00 
C 2.64 51.16 4.62 54.02 6.00 56.00
C 6.40 56.20 7.00 56.00 7.00 56.00
C 14.44 61.15 22.57 65.77 29.00 72.00
C 37.65 77.39 45.45 83.64 54.00 89.00
C 56.92 91.45 61.25 92.23 63.00 96.00
C 64.46 96.55 65.18 98.40 67.00 98.00
C 76.83 105.62 88.04 111.57 97.00 120.00
C 100.11 119.66 100.88 124.38 104.00 124.00
C 105.97 125.72 108.95 126.37 110.00 129.00
C 111.88 129.68 113.32 131.02 115.00 132.00
C 124.85 138.48 134.68 143.67 143.00 152.00
C 143.48 152.09 144.00 152.00 144.00 152.00
C 146.29 154.11 149.22 155.64 151.00 158.00
C 151.44 158.16 152.00 158.00 152.00 158.00
C 155.25 159.88 158.86 161.87 161.00 165.00
C 161.80 165.13 162.11 166.09 163.00 166.00
C 165.92 167.54 168.99 169.49 171.00 172.00
C 171.44 172.16 172.00 172.00 172.00 172.00
C 179.86 177.53 188.26 182.32 195.00 189.00
C 195.44 189.16 196.00 189.00 196.00 189.00
C 197.55 190.55 200.17 190.83 201.00 193.00
C 202.93 193.66 203.67 196.39 206.00 196.00
C 207.55 197.55 210.17 197.83 211.00 200.00
C 213.51 202.06 216.02 203.80 219.00 205.00
C 222.76 206.53 226.24 210.05 229.00 213.00
C 229.36 213.22 230.00 213.00 230.00 213.00
C 232.90 215.48 237.05 216.55 239.00 220.00
C 239.36 220.22 240.00 220.00 240.00 220.00
C 246.36 224.62 253.66 228.31 259.00 234.00
C 260.93 234.66 261.67 237.39 264.00 237.00
C 267.25 238.88 270.86 240.87 273.00 244.00
C 273.36 244.22 274.00 244.00 274.00 244.00
C 280.24 247.39 288.06 251.03 292.00 257.00
C 292.44 257.16 293.00 257.00 293.00 257.00
C 295.35 258.02 297.85 259.58 299.00 262.00
C 299.44 262.16 300.00 262.00 300.00 262.00
C 301.57 262.96 303.25 264.32 304.00 266.00
C 305.82 265.45 306.47 267.75 308.00 268.00
C 309.85 268.97 312.24 269.79 313.00 272.00
C 313.44 272.16 314.00 272.00 314.00 272.00
C 316.23 274.19 319.55 275.14 321.00 278.00
C 321.36 278.22 322.00 278.00 322.00 278.00
C 326.04 280.90 331.17 282.69 334.00 287.00
C 334.80 287.13 335.11 288.09 336.00 288.00
C 338.22 287.95 339.99 290.29 341.00 292.00
C 344.32 292.26 345.69 296.44 349.00 297.00
C 352.25 298.88 355.86 300.87 358.00 304.00
C 358.36 304.22 359.00 304.00 359.00 304.00
C 363.04 306.93 367.79 309.29 371.00 313.00
C 373.31 312.55 374.07 315.53 376.00 316.00
C 377.55 317.55 380.17 317.83 381.00 320.00
C 381.44 320.16 382.00 320.00 382.00 320.00
C 383.85 320.97 386.24 321.79 387.00 324.00
C 387.36 324.22 388.00 324.00 388.00 324.00
C 389.57 324.96 391.25 326.32 392.00 328.00
C 394.93 328.28 396.77 331.69 399.00 333.00
C 432.67 333.00 466.33 333.00 500.00 333.00
L 500.00 282.00
C 492.58 279.35 486.06 274.79 481.00 268.00
C 480.60 267.80 480.00 268.00 480.00 268.00
C 475.74 264.56 470.09 262.75 467.00 258.00
C 461.89 257.02 459.11 250.97 454.00 250.00
C 450.28 248.03 446.26 245.78 444.00 242.00
C 442.54 241.45 441.82 239.60 440.00 240.00
C 431.09 234.05 422.12 227.66 414.00 221.00
C 411.69 221.45 410.93 218.47 409.00 218.00
C 404.63 214.74 399.34 212.35 396.00 208.00
C 394.72 208.53 394.14 207.03 393.00 207.00
C 391.10 205.13 388.30 204.27 387.00 202.00
C 386.56 201.84 386.00 202.00 386.00 202.00
C 379.64 197.84 372.33 193.64 367.00 188.00
C 366.56 187.84 366.00 188.00 366.00 188.00
C 362.63 185.40 358.43 183.54 356.00 180.00
C 355.56 179.84 355.00 180.00 355.00 180.00
C 350.79 177.34 346.21 174.72 343.00 171.00
C 342.20 170.87 341.89 169.91 341.00 170.00
C 338.78 170.05 337.01 167.71 336.00 166.00
C 334.54 165.45 333.82 163.60 332.00 164.00
C 327.74 160.56 322.09 158.75 319.00 154.00
C 318.64 153.78 318.00 154.00 318.00 154.00
C 313.38 152.29 308.89 149.20 306.00 145.00
C 303.29 143.33 301.20 140.49 298.00 140.00
C 296.45 138.45 293.83 138.17 293.00 136.00
C 290.22 133.51 286.99 132.09 284.00 130.00
C 281.65 128.98 279.15 127.42 278.00 125.00
C 277.68 124.76 277.00 125.00 277.00 125.00
C 265.19 116.94 252.96 108.94 242.00 100.00
C 241.56 99.84 241.00 100.00 241.00 100.00
C 236.73 96.57 231.40 94.27 228.00 90.00
C 224.77 88.28 222.39 85.38 219.00 84.00
C 214.97 82.00 210.68 79.67 208.00 76.00
C 207.56 75.84 207.00 76.00 207.00 76.00
C 201.77 71.82 195.16 69.31 191.00 64.00
C 190.56 63.84 190.00 64.00 190.00 64.00
C 188.45 62.45 185.83 62.17 185.00 60.00
C 184.20 59.87 183.89 58.91 183.00 59.00
C 180.65 57.98 178.15 56.42 177.00 54.00
C 176.64 53.78 176.00 54.00 176.00 54.00
C 173.58 53.32 172.08 51.19 170.00 50.00
C 167.78 50.05 166.01 47.71 165.00 46.00
C 162.95 44.65 161.04 43.30 159.00 42.00
C 153.61 38.15 147.16 35.31 143.00 30.00
C 142.64 29.78 142.00 30.00 142.00 30.00
C 140.45 28.45 137.83 28.17 137.00 26.00
C 136.56 25.84 136.00 26.00 136.00 26.00
C 133.57 24.17 130.37 22.95 129.00 20.00
C 128.64 19.78 128.00 20.00 128.00 20.00
C 122.78 15.83 116.04 13.51 112.00 8.00
C 111.64 7.78 111.00 8.00 111.00 8.00
C 109.45 6.45 106.83 6.17 106.00 4.00
C 104.45 2.45 101.83 2.17 101.00 0.00
L 0.00 0.00
L 0.00 51.00 Z"/>
</g>
<g fill="#EA2A39" fill-opacity="1.00" stroke="None"><path d="
M 106.00 4.00 
C 107.85 4.97 110.24 5.79 111.00 8.00
C 111.00 8.00 111.64 7.78 112.00 8.00
C 117.20 12.23 123.64 15.00 128.00 20.00
C 128.00 20.00 128.64 19.78 129.00 20.00
C 131.43 21.83 134.63 23.05 136.00 26.00
C 136.00 26.00 136.56 25.84 137.00 26.00
C 138.85 26.97 141.24 27.79 142.00 30.00
C 142.00 30.00 142.64 29.78 143.00 30.00
C 148.33 34.01 154.42 37.33 159.00 42.00
C 161.04 43.30 162.95 44.65 165.00 46.00
C 166.67 47.11 168.13 48.30 170.00 49.00
C 171.97 50.72 174.95 51.37 176.00 54.00
C 176.00 54.00 176.64 53.78 177.00 54.00
C 178.97 55.72 181.95 56.37 183.00 59.00
C 183.89 58.91 184.20 59.87 185.00 60.00
C 186.85 60.97 189.24 61.79 190.00 64.00
C 190.00 64.00 190.56 63.84 191.00 64.00
C 196.52 67.66 202.62 71.05 207.00 76.00
C 207.00 76.00 207.56 75.84 208.00 76.00
C 211.85 78.34 215.99 80.82 219.00 84.00
C 222.39 85.38 224.77 88.28 228.00 90.00
C 232.26 93.44 237.91 95.25 241.00 100.00
C 241.00 100.00 241.56 99.84 242.00 100.00
C 253.95 107.84 266.14 115.93 277.00 125.00
C 277.00 125.00 277.68 124.76 278.00 125.00
C 279.90 126.87 282.70 127.73 284.00 130.00
C 286.99 132.09 290.22 133.51 293.00 136.00
C 295.22 135.95 296.99 138.29 298.00 140.00
C 301.20 140.49 303.29 143.33 306.00 145.00
C 309.72 148.48 314.80 150.24 318.00 154.00
C 318.00 154.00 318.64 153.78 319.00 154.00
C 323.27 157.43 328.60 159.73 332.00 164.00
C 333.82 163.60 334.54 165.45 336.00 166.00
C 337.55 167.55 340.18 167.83 341.00 170.00
C 341.89 169.91 342.20 170.87 343.00 171.00
C 347.14 173.73 351.92 176.10 355.00 180.00
C 355.00 180.00 355.56 179.84 356.00 180.00
C 359.63 182.13 363.63 184.38 366.00 188.00
C 366.00 188.00 366.56 187.84 367.00 188.00
C 373.44 192.44 380.71 196.23 386.00 202.00
C 386.00 202.00 386.56 201.84 387.00 202.00
C 389.35 203.02 391.85 204.58 393.00 207.00
C 394.14 207.03 394.72 208.53 396.00 208.00
C 400.27 211.43 405.60 213.73 409.00 218.00
C 410.93 218.47 411.69 221.45 414.00 221.00
C 423.11 226.58 432.15 232.91 440.00 240.00
C 441.82 239.60 442.54 241.45 444.00 242.00
C 447.37 244.60 451.57 246.46 454.00 250.00
C 459.11 250.97 461.89 257.02 467.00 258.00
C 471.02 261.85 476.73 263.51 480.00 268.00
C 480.00 268.00 480.60 267.80 481.00 268.00
C 487.20 272.63 493.51 276.77 500.00 281.00
L 500.00 0.00
L 101.00 0.00
C 101.83 2.17 104.45 2.45 106.00 4.00 Z"/>
</g>
<g fill="#EE828E" fill-opacity="1.00" stroke="None"><path d="
M 111.00 8.00 
C 110.24 5.79 107.85 4.97 106.00 4.00
C 106.83 6.17 109.45 6.45 111.00 8.00 Z"/>
</g>
<g fill="#F59599" fill-opacity="1.00" stroke="None"><path d="
M 128.00 20.00 
C 123.64 15.00 117.20 12.23 112.00 8.00
C 116.04 13.51 122.78 15.83 128.00 20.00 Z"/>
</g>
<g fill="#F6A2AB" fill-opacity="1.00" stroke="None"><path d="
M 136.00 26.00 
C 134.63 23.05 131.43 21.83 129.00 20.00
C 130.37 22.95 133.57 24.17 136.00 26.00 Z"/>
</g>
<g fill="#F9A8AA" fill-opacity="1.00" stroke="None"><path d="
M 142.00 30.00 
C 141.24 27.79 138.85 26.97 137.00 26.00
C 137.83 28.17 140.45 28.45 142.00 30.00 Z"/>
</g>
<g fill="#FBB3BD" fill-opacity="1.00" stroke="None"><path d="
M 159.00 42.00 
C 154.42 37.33 148.33 34.01 143.00 30.00
C 147.16 35.31 153.61 38.15 159.00 42.00 Z"/>
</g>
<g fill="#FFDCE4" fill-opacity="1.00" stroke="None"><path d="
M 170.00 50.00 
C 169.75 49.73 170.00 49.00 170.00 49.00
C 168.13 48.30 166.67 47.11 165.00 46.00
C 166.01 47.71 167.78 50.05 170.00 50.00 Z"/>
</g>
<g fill="#F7A7B1" fill-opacity="1.00" stroke="None"><path d="
M 170.00 50.00 
C 172.08 51.19 173.58 53.32 176.00 54.00
C 174.95 51.37 171.97 50.72 170.00 49.00
C 170.00 49.00 169.75 49.73 170.00 50.00 Z"/>
</g>
<g fill="#FEBFC1" fill-opacity="1.00" stroke="None"><path d="
M 0.00 52.00 
C 2.75 51.73 3.68 55.29 6.00 56.00
C 4.62 54.02 2.64 51.16 0.00 51.00
L 0.00 52.00 Z"/>
</g>
<g fill="#EA2A39" fill-opacity="1.00" stroke="None"><path d="
M 0.00 333.00 
C 133.00 333.00 266.00 333.00 399.00 333.00
C 396.77 331.69 394.93 328.28 392.00 328.00
C 390.43 327.04 388.75 325.68 388.00 324.00
C 388.00 324.00 387.36 324.22 387.00 324.00
C 385.45 322.45 382.83 322.17 382.00 320.00
C 382.00 320.00 381.44 320.16 381.00 320.00
C 379.15 319.03 376.76 318.21 376.00 316.00
C 374.07 315.53 373.31 312.55 371.00 313.00
C 366.86 310.27 362.08 307.90 359.00 304.00
C 359.00 304.00 358.36 304.22 358.00 304.00
C 355.10 301.52 350.95 300.45 349.00 297.00
C 345.69 296.44 344.32 292.26 341.00 292.00
C 339.45 290.45 336.83 290.17 336.00 288.00
C 335.11 288.09 334.80 287.13 334.00 287.00
C 330.39 283.36 324.79 282.40 322.00 278.00
C 322.00 278.00 321.36 278.22 321.00 278.00
C 318.57 276.17 315.37 274.95 314.00 272.00
C 314.00 272.00 313.44 272.16 313.00 272.00
C 311.15 271.03 308.76 270.21 308.00 268.00
C 306.47 267.75 305.82 265.45 304.00 266.00
C 302.43 265.04 300.75 263.68 300.00 262.00
C 300.00 262.00 299.44 262.16 299.00 262.00
C 296.65 260.98 294.15 259.42 293.00 257.00
C 293.00 257.00 292.44 257.16 292.00 257.00
C 285.80 253.03 279.37 248.80 274.00 244.00
C 274.00 244.00 273.36 244.22 273.00 244.00
C 270.10 241.52 265.95 240.45 264.00 237.00
C 261.67 237.39 260.93 234.66 259.00 234.00
C 252.69 229.31 245.19 225.93 240.00 220.00
C 240.00 220.00 239.36 220.22 239.00 220.00
C 236.10 217.52 231.95 216.45 230.00 213.00
C 230.00 213.00 229.36 213.22 229.00 213.00
C 225.63 210.40 221.43 208.54 219.00 205.00
C 216.02 203.80 213.51 202.06 211.00 200.00
C 208.78 200.05 207.01 197.71 206.00 196.00
C 203.67 196.39 202.93 193.66 201.00 193.00
C 199.15 192.03 196.76 191.21 196.00 189.00
C 196.00 189.00 195.44 189.16 195.00 189.00
C 187.10 183.76 178.84 178.42 172.00 172.00
C 172.00 172.00 171.44 172.16 171.00 172.00
C 168.08 170.46 165.01 168.51 163.00 166.00
C 162.11 166.09 161.80 165.13 161.00 165.00
C 157.95 162.74 154.30 160.91 152.00 158.00
C 152.00 158.00 151.44 158.16 151.00 158.00
C 148.18 156.86 145.54 154.65 144.00 152.00
C 144.00 152.00 143.48 152.09 143.00 152.00
C 133.86 145.47 123.23 139.83 115.00 132.00
C 113.32 131.02 111.88 129.68 110.00 129.00
C 108.03 127.28 105.05 126.63 104.00 124.00
C 100.88 124.38 100.11 119.66 97.00 120.00
C 86.98 112.70 75.70 106.86 67.00 98.00
C 65.18 98.40 64.46 96.55 63.00 96.00
C 60.10 93.52 55.95 92.45 54.00 89.00
C 45.45 83.64 37.65 77.39 29.00 72.00
C 21.64 66.74 13.37 62.33 7.00 56.00
C 7.00 56.00 6.40 56.20 6.00 56.00
C 3.68 55.29 2.75 51.73 0.00 52.00
L 0.00 333.00 Z"/>
</g>
<g fill="#F8B2AD" fill-opacity="1.00" stroke="None"><path d="
M 183.00 59.00 
C 181.95 56.37 178.97 55.72 177.00 54.00
C 178.15 56.42 180.65 57.98 183.00 59.00 Z"/>
</g>
<g fill="#F69EA7" fill-opacity="1.00" stroke="None"><path d="
M 29.00 72.00 
C 22.57 65.77 14.44 61.15 7.00 56.00
C 13.37 62.33 21.64 66.74 29.00 72.00 Z"/>
</g>
<g fill="#FBB4B6" fill-opacity="1.00" stroke="None"><path d="
M 190.00 64.00 
C 189.24 61.79 186.85 60.97 185.00 60.00
C 185.83 62.17 188.45 62.45 190.00 64.00 Z"/>
</g>
<g fill="#FBB7B7" fill-opacity="1.00" stroke="None"><path d="
M 207.00 76.00 
C 202.62 71.05 196.52 67.66 191.00 64.00
C 195.16 69.31 201.77 71.82 207.00 76.00 Z"/>
</g>
<g fill="#FAB1BC" fill-opacity="1.00" stroke="None"><path d="
M 219.00 84.00 
C 215.99 80.82 211.85 78.34 208.00 76.00
C 210.68 79.67 214.97 82.00 219.00 84.00 Z"/>
</g>
<g fill="#FAB0B5" fill-opacity="1.00" stroke="None"><path d="
M 63.00 96.00 
C 61.25 92.23 56.92 91.45 54.00 89.00
C 55.95 92.45 60.10 93.52 63.00 96.00 Z"/>
</g>
<g fill="#F6AAB1" fill-opacity="1.00" stroke="None"><path d="
M 241.00 100.00 
C 237.91 95.25 232.26 93.44 228.00 90.00
C 231.40 94.27 236.73 96.57 241.00 100.00 Z"/>
</g>
<g fill="#F59EA9" fill-opacity="1.00" stroke="None"><path d="
M 97.00 120.00 
C 88.04 111.57 76.83 105.62 67.00 98.00
C 75.70 106.86 86.98 112.70 97.00 120.00 Z"/>
</g>
<g fill="#F7A7A8" fill-opacity="1.00" stroke="None"><path d="
M 277.00 125.00 
C 266.14 115.93 253.95 107.84 242.00 100.00
C 252.96 108.94 265.19 116.94 277.00 125.00 Z"/>
</g>
<g fill="#FEC0BC" fill-opacity="1.00" stroke="None"><path d="
M 110.00 129.00 
C 108.95 126.37 105.97 125.72 104.00 124.00
C 105.05 126.63 108.03 127.28 110.00 129.00 Z"/>
</g>
<g fill="#0C72CA" fill-opacity="1.00" stroke="None"><path d="
M 241.00 149.00 
C 241.37 150.54 239.57 151.40 240.00 153.00
C 229.83 153.67 218.34 151.67 209.00 154.00
C 211.81 155.70 215.35 156.95 217.00 160.00
C 217.00 160.00 217.68 159.76 218.00 160.00
C 223.42 163.56 228.29 168.29 234.00 171.00
C 233.07 176.12 231.78 181.83 229.00 186.00
C 229.00 186.00 229.02 186.50 229.00 187.00
C 229.84 190.88 222.63 200.26 227.00 200.00
C 232.74 196.98 237.37 191.84 243.00 189.00
C 243.93 186.83 246.05 185.89 248.00 185.00
C 250.53 182.94 252.83 185.70 255.00 187.00
C 257.35 188.02 259.85 189.58 261.00 192.00
C 265.19 194.39 268.69 197.78 273.00 200.00
C 273.67 200.28 274.78 201.48 275.00 200.00
C 275.00 200.00 275.01 199.50 275.00 199.00
C 273.28 195.48 271.89 191.11 271.00 187.00
C 271.00 187.00 271.12 186.47 271.00 186.00
C 269.57 184.95 268.77 182.90 269.00 181.00
C 260.71 167.19 283.23 162.10 291.00 154.00
C 281.58 151.69 270.18 153.65 260.00 153.00
C 258.80 147.86 256.45 143.08 255.00 138.00
C 254.17 133.14 251.83 128.83 251.00 124.00
C 244.37 129.50 245.91 141.46 241.00 149.00 Z"/>
</g>
<g fill="#F7ACB5" fill-opacity="1.00" stroke="None"><path d="
M 284.00 130.00 
C 282.70 127.73 279.90 126.87 278.00 125.00
C 279.15 127.42 281.65 128.98 284.00 130.00 Z"/>
</g>
<g fill="#FDBDC4" fill-opacity="1.00" stroke="None"><path d="
M 143.00 152.00 
C 134.68 143.67 124.85 138.48 115.00 132.00
C 123.23 139.83 133.86 145.47 143.00 152.00 Z"/>
</g>
<g fill="#F69DB0" fill-opacity="1.00" stroke="None"><path d="
M 298.00 140.00 
C 296.99 138.29 295.22 135.95 293.00 136.00
C 293.83 138.17 296.45 138.45 298.00 140.00 Z"/>
</g>
<g fill="#C1EAFB" fill-opacity="1.00" stroke="None"><path d="
M 269.00 181.00 
C 269.13 181.22 270.00 181.00 270.00 181.00
C 264.29 164.39 288.05 165.01 292.00 152.00
C 281.67 152.00 271.33 152.00 261.00 152.00
C 258.52 147.55 260.05 140.84 255.00 138.00
C 256.45 143.08 258.80 147.86 260.00 153.00
C 270.18 153.65 281.58 151.69 291.00 154.00
C 283.23 162.10 260.71 167.19 269.00 181.00 Z"/>
</g>
<g fill="#FFCFD5" fill-opacity="1.00" stroke="None"><path d="
M 318.00 154.00 
C 314.80 150.24 309.72 148.48 306.00 145.00
C 308.89 149.20 313.38 152.29 318.00 154.00 Z"/>
</g>
<g fill="#B3E2FA" fill-opacity="1.00" stroke="None"><path d="
M 217.00 160.00 
C 215.35 156.95 211.81 155.70 209.00 154.00
C 218.34 151.67 229.83 153.67 240.00 153.00
C 239.57 151.40 241.37 150.54 241.00 149.00
C 232.86 155.62 218.60 150.28 208.00 152.00
C 208.67 156.42 214.15 157.24 217.00 160.00 Z"/>
</g>
<g fill="#F1A4AA" fill-opacity="1.00" stroke="None"><path d="
M 151.00 158.00 
C 149.22 155.64 146.29 154.11 144.00 152.00
C 145.54 154.65 148.18 156.86 151.00 158.00 Z"/>
</g>
<g fill="#FDBEBD" fill-opacity="1.00" stroke="None"><path d="
M 332.00 164.00 
C 328.60 159.73 323.27 157.43 319.00 154.00
C 322.09 158.75 327.74 160.56 332.00 164.00 Z"/>
</g>
<g fill="#FEBAC3" fill-opacity="1.00" stroke="None"><path d="
M 161.00 165.00 
C 158.86 161.87 155.25 159.88 152.00 158.00
C 154.30 160.91 157.95 162.74 161.00 165.00 Z"/>
</g>
<g fill="#94CAEF" fill-opacity="1.00" stroke="None"><path d="
M 229.00 186.00 
C 231.78 181.83 233.07 176.12 234.00 171.00
C 228.29 168.29 223.42 163.56 218.00 160.00
C 221.37 164.23 226.13 167.57 230.75 170.25 C 235.42 174.52 228.72 180.71 229.00 186.00 Z"/>
</g>
<g fill="#F5A8AA" fill-opacity="1.00" stroke="None"><path d="
M 171.00 172.00 
C 168.99 169.49 165.92 167.54 163.00 166.00
C 165.01 168.51 168.08 170.46 171.00 172.00 Z"/>
</g>
<g fill="#FBB1B4" fill-opacity="1.00" stroke="None"><path d="
M 341.00 170.00 
C 340.18 167.83 337.55 167.55 336.00 166.00
C 337.01 167.71 338.78 170.05 341.00 170.00 Z"/>
</g>
<g fill="#FA9FA8" fill-opacity="1.00" stroke="None"><path d="
M 355.00 180.00 
C 351.92 176.10 347.14 173.73 343.00 171.00
C 346.21 174.72 350.79 177.34 355.00 180.00 Z"/>
</g>
<g fill="#FCB0B5" fill-opacity="1.00" stroke="None"><path d="
M 195.00 189.00 
C 188.26 182.32 179.86 177.53 172.00 172.00
C 178.84 178.42 187.10 183.76 195.00 189.00 Z"/>
</g>
<g fill="#F59BA4" fill-opacity="1.00" stroke="None"><path d="
M 366.00 188.00 
C 363.63 184.38 359.63 182.13 356.00 180.00
C 358.43 183.54 362.63 185.40 366.00 188.00 Z"/>
</g>
<g fill="#7CB5E3" fill-opacity="1.00" stroke="None"><path d="
M 271.00 186.00 
C 271.20 184.13 269.38 182.94 270.00 181.00
C 270.00 181.00 269.13 181.22 269.00 181.00
C 268.77 182.90 269.57 184.95 271.00 186.00 Z"/>
</g>
<g fill="#77AEDF" fill-opacity="1.00" stroke="None"><path d="
M 243.00 189.00 
C 244.25 188.70 244.71 187.17 246.00 187.00
C 247.03 186.87 247.59 185.83 248.00 185.00
C 246.05 185.89 243.93 186.83 243.00 189.00 Z"/>
</g>
<g fill="#87BFE4" fill-opacity="1.00" stroke="None"><path d="
M 227.00 201.00 
C 227.05 200.99 227.00 200.00 227.00 200.00
C 222.63 200.26 229.84 190.88 229.00 187.00
C 226.34 191.26 224.69 196.80 224.00 202.00
C 225.18 202.15 226.06 201.57 227.00 201.00 Z"/>
</g>
<g fill="#C9ECFC" fill-opacity="1.00" stroke="None"><path d="
M 243.00 189.00 
C 237.37 191.84 232.74 196.98 227.00 200.00
C 227.00 200.00 227.05 200.99 227.00 201.00
C 234.09 197.69 240.92 193.00 246.00 187.00
C 244.71 187.17 244.25 188.70 243.00 189.00 Z"/>
</g>
<g fill="#7EBBED" fill-opacity="1.00" stroke="None"><path d="
M 261.00 192.00 
C 259.85 189.58 257.35 188.02 255.00 187.00
C 256.05 189.63 259.03 190.28 261.00 192.00 Z"/>
</g>
<g fill="#9DCBEB" fill-opacity="1.00" stroke="None"><path d="
M 275.00 199.00 
C 274.80 194.75 273.50 190.20 271.00 187.00
C 271.89 191.11 273.28 195.48 275.00 199.00 Z"/>
</g>
<g fill="#FDBAC4" fill-opacity="1.00" stroke="None"><path d="
M 386.00 202.00 
C 380.71 196.23 373.44 192.44 367.00 188.00
C 372.33 193.64 379.64 197.84 386.00 202.00 Z"/>
</g>
<g fill="#F7AEB5" fill-opacity="1.00" stroke="None"><path d="
M 201.00 193.00 
C 200.17 190.83 197.55 190.55 196.00 189.00
C 196.76 191.21 199.15 192.03 201.00 193.00 Z"/>
</g>
<g fill="#F49EB4" fill-opacity="1.00" stroke="None"><path d="
M 211.00 200.00 
C 210.17 197.83 207.55 197.55 206.00 196.00
C 207.01 197.71 208.78 200.05 211.00 200.00 Z"/>
</g>
<g fill="#7FADD7" fill-opacity="1.00" stroke="None"><path d="
M 275.00 200.00 
C 274.78 201.48 273.67 200.28 273.00 200.00
C 272.97 202.61 277.80 201.84 275.00 200.00 Z"/>
</g>
<g fill="#F8AFAE" fill-opacity="1.00" stroke="None"><path d="
M 393.00 207.00 
C 391.85 204.58 389.35 203.02 387.00 202.00
C 388.30 204.27 391.10 205.13 393.00 207.00 Z"/>
</g>
<g fill="#FFC3CA" fill-opacity="1.00" stroke="None"><path d="
M 229.00 213.00 
C 226.24 210.05 222.76 206.53 219.00 205.00
C 221.43 208.54 225.63 210.40 229.00 213.00 Z"/>
</g>
<g fill="#F3989C" fill-opacity="1.00" stroke="None"><path d="
M 409.00 218.00 
C 405.60 213.73 400.27 211.43 396.00 208.00
C 399.34 212.35 404.63 214.74 409.00 218.00 Z"/>
</g>
<g fill="#F8B1B2" fill-opacity="1.00" stroke="None"><path d="
M 239.00 220.00 
C 237.05 216.55 232.90 215.48 230.00 213.00
C 231.95 216.45 236.10 217.52 239.00 220.00 Z"/>
</g>
<g fill="#FAAEAC" fill-opacity="1.00" stroke="None"><path d="
M 259.00 234.00 
C 253.66 228.31 246.36 224.62 240.00 220.00
C 245.19 225.93 252.69 229.31 259.00 234.00 Z"/>
</g>
<g fill="#F59FA9" fill-opacity="1.00" stroke="None"><path d="
M 440.00 240.00 
C 432.15 232.91 423.11 226.58 414.00 221.00
C 422.12 227.66 431.09 234.05 440.00 240.00 Z"/>
</g>
<g fill="#F5A7AF" fill-opacity="1.00" stroke="None"><path d="
M 273.00 244.00 
C 270.86 240.87 267.25 238.88 264.00 237.00
C 265.95 240.45 270.10 241.52 273.00 244.00 Z"/>
</g>
<g fill="#FEC6CC" fill-opacity="1.00" stroke="None"><path d="
M 454.00 250.00 
C 451.57 246.46 447.37 244.60 444.00 242.00
C 446.26 245.78 450.28 248.03 454.00 250.00 Z"/>
</g>
<g fill="#FFD6DF" fill-opacity="1.00" stroke="None"><path d="
M 292.00 257.00 
C 288.06 251.03 280.24 247.39 274.00 244.00
C 279.37 248.80 285.80 253.03 292.00 257.00 Z"/>
</g>
<g fill="#FFCBCD" fill-opacity="1.00" stroke="None"><path d="
M 299.00 262.00 
C 297.85 259.58 295.35 258.02 293.00 257.00
C 294.15 259.42 296.65 260.98 299.00 262.00 Z"/>
</g>
<g fill="#F4A1A1" fill-opacity="1.00" stroke="None"><path d="
M 480.00 268.00 
C 476.73 263.51 471.02 261.85 467.00 258.00
C 470.09 262.75 475.74 264.56 480.00 268.00 Z"/>
</g>
<g fill="#FAB6B6" fill-opacity="1.00" stroke="None"><path d="
M 304.00 266.00 
C 303.25 264.32 301.57 262.96 300.00 262.00
C 300.75 263.68 302.43 265.04 304.00 266.00 Z"/>
</g>
<g fill="#F7AFB3" fill-opacity="1.00" stroke="None"><path d="
M 313.00 272.00 
C 312.24 269.79 309.85 268.97 308.00 268.00
C 308.76 270.21 311.15 271.03 313.00 272.00 Z"/>
</g>
<g fill="#FDCDD3" fill-opacity="1.00" stroke="None"><path d="
M 500.00 282.00 
L 500.00 281.00
C 493.51 276.77 487.20 272.63 481.00 268.00
C 486.06 274.79 492.58 279.35 500.00 282.00 Z"/>
</g>
<g fill="#F6A1A3" fill-opacity="1.00" stroke="None"><path d="
M 321.00 278.00 
C 319.55 275.14 316.23 274.19 314.00 272.00
C 315.37 274.95 318.57 276.17 321.00 278.00 Z"/>
</g>
<g fill="#F8A9AC" fill-opacity="1.00" stroke="None"><path d="
M 334.00 287.00 
C 331.17 282.69 326.04 280.90 322.00 278.00
C 324.79 282.40 330.39 283.36 334.00 287.00 Z"/>
</g>
<g fill="#F5A7AF" fill-opacity="1.00" stroke="None"><path d="
M 341.00 292.00 
C 339.99 290.29 338.22 287.95 336.00 288.00
C 336.83 290.17 339.45 290.45 341.00 292.00 Z"/>
</g>
<g fill="#F8A2AA" fill-opacity="1.00" stroke="None"><path d="
M 358.00 304.00 
C 355.86 300.87 352.25 298.88 349.00 297.00
C 350.95 300.45 355.10 301.52 358.00 304.00 Z"/>
</g>
<g fill="#F6A1AA" fill-opacity="1.00" stroke="None"><path d="
M 371.00 313.00 
C 367.79 309.29 363.04 306.93 359.00 304.00
C 362.08 307.90 366.86 310.27 371.00 313.00 Z"/>
</g>
<g fill="#F79BA1" fill-opacity="1.00" stroke="None"><path d="
M 381.00 320.00 
C 380.17 317.83 377.55 317.55 376.00 316.00
C 376.76 318.21 379.15 319.03 381.00 320.00 Z"/>
</g>
<g fill="#FFC4C2" fill-opacity="1.00" stroke="None"><path d="
M 387.00 324.00 
C 386.24 321.79 383.85 320.97 382.00 320.00
C 382.83 322.17 385.45 322.45 387.00 324.00 Z"/>
</g>
<g fill="#FDAFB1" fill-opacity="1.00" stroke="None"><path d="
M 392.00 328.00 
C 391.25 326.32 389.57 324.96 388.00 324.00
C 388.75 325.68 390.43 327.04 392.00 328.00 Z"/>
</g>
<g fill="#FE6A75" fill-opacity="0.56" stroke="None"><path d="
M 0.00 334.00 
L 399.00 334.00
C 399.00 333.50 399.00 333.00 399.00 333.00
C 266.00 333.00 133.00 333.00 0.00 333.00
L 0.00 334.00 Z"/>
</g>
<g fill="#E1C4CA" fill-opacity="0.71" stroke="None"><path d="
M 399.00 334.00 
L 500.00 334.00
L 500.00 333.00
C 466.33 333.00 432.67 333.00 399.00 333.00
C 399.00 333.00 399.00 333.50 399.00 334.00 Z"/>
</g>
</svg>